<svg xmlns="http://www.w3.org/2000/svg" width="16" height="16"><defs><linearGradient id="b" x1=".5" x2=".5" y2="1" gradientUnits="objectBoundingBox"><stop offset="0" stop-color="#0098df"/><stop offset="1" stop-color="#0c4ea4"/></linearGradient><linearGradient id="c" x1=".251" x2=".5" y2="1" gradientUnits="objectBoundingBox"><stop offset="0" stop-color="#ff007a"/><stop offset="1" stop-color="#72003f"/></linearGradient><linearGradient id="d" x1=".5" x2=".5" y2="1" gradientUnits="objectBoundingBox"><stop offset="0" stop-color="#bc005e"/><stop offset="1" stop-color="#ae0058"/></linearGradient><linearGradient id="e" x1=".5" x2=".5" y2="1" gradientUnits="objectBoundingBox"><stop offset="0" stop-color="#066cbc"/><stop offset="1" stop-color="#0865b6"/></linearGradient><clipPath id="a"><path d="M0 0h16v16H0z"/></clipPath></defs><g data-name="Sduko fav" clip-path="url(#a)"><g data-name="Group 37" fill-rule="evenodd"><path data-name="Path 13" d="M8549.447 17390.711c-.188.5.074.434.347.572.019.32-.153.279-.027.676.093.293-.032.041.006.313.019.131.091.145.169.27l.013.123.008.076c.637-1.072-.112-.113.015.012a.831.831 0 0 0 .217.121c-.046-.047-.146-.02-.247-.027-.285 1.469 1.672.631 2.473.521a4.162 4.162 0 0 1-.87 1.332 3.237 3.237 0 0 1-3.932.885c-.284-.135-.479-.3-.7-.408l-.048-.043-.049-.043-.045-.045-.05-.043-.045-.047-.046-.047-.044-.049-.044-.047-.033-.021.033.021.044.047.044.049.046.047.045.047.05.043.045.045.049.043.048.043a4.355 4.355 0 0 0 2.125 1.326c1.656.154 3.651-1.117 4.841-2.049.5-.393 2.454-2.639 2.563-2.789 1.506-3.473-1.233-7.189-5.38-5.781a3.237 3.237 0 0 0-1.3.771c-.37.436-.521 1.029.41 1.08-.086.406-.656 1.152-.433 1.535.165.285.346.271.106.732-.137.248-.281.455-.404.709z" transform="translate(-8541.054 -17383.92)" fill="url(#b)"/><g data-name="Group 36"><path data-name="Path 12" d="M4526.666 17411.086c.061-.145-.1.074-.117.1a46.795 46.795 0 0 1-2.078 2.309 3.593 3.593 0 0 1-.324.311l-.022.018c-1.22.947-3.177 2.184-4.778 2.053a4.1 4.1 0 0 1-2.182-1.32 3.685 3.685 0 0 1-.512-.561c-.509-.809-1.112-1.719-1.537-2.562-.018-.037-.2-.367-.115-.385a12.7 12.7 0 0 1 1.228 1.029c.5.424 1.845 1.539 1.966.191l.007-.07-.017-.168c-.021.074.013.053-.044.031a1.708 1.708 0 0 1-.065-.74c.026-.285.118-.406.384-.453l.042.076.032.146c-.135-.006-.18.08-.148.236.174-.086.172-.174.117-.383l-.042-.076c-.139-.312.754-.158.393-.818-.167-.307-.518-.553-.377-1 .424-1.361-.12-1.262.146-1.74a.557.557 0 0 0-.018-.6 3.725 3.725 0 0 0-4.821-1.348c-2.647 1.336-2.666 3.764-1.73 6.252.807 2.1 4.089 5.121 6.194 5.844a3.48 3.48 0 0 0 3.166-.545 13.736 13.736 0 0 0 3.056-2.445 11.982 11.982 0 0 0 2.173-3.316z" transform="translate(-4511.296 -17403.288)" fill="url(#c)"/><path data-name="Path 14" d="M9386.934 21853.176c0-.055-.015-.182.038-.213s.148-.041.178-.086a.242.242 0 0 0 .015-.152c-.017-.123-.055-.107-.122-.184-.026-.027 0-.027.022-.037s.066-.021.079-.039.015-.08.021-.105c.023-.072.058-.07.1-.111.021-.02.011-.029.007-.055a.547.547 0 0 0-.034-.129.43.43 0 0 1-.029-.051c-.5-.244-.6.023-.5.453-.025.266-.308.682.187.74.05.022.018.043.038-.031z" transform="translate(-9380.047 -21844.436)" fill="url(#d)"/></g><path data-name="Path 15" d="m11178.707 22398.457-.006.566.385-.012.062-.779-.245-.035z" transform="translate(-11169.807 -22390)" fill="url(#e)"/></g></g></svg>