<svg id="Group_1093" data-name="Group 1093" xmlns="http://www.w3.org/2000/svg" width="24" height="24" viewBox="0 0 24 24">
  <circle id="Ellipse_101" data-name="Ellipse 101" cx="12" cy="12" r="12" fill="#d40068"/>
  <path id="Icon_ionic-md-arrow-round-back" data-name="Icon ionic-md-arrow-round-back" d="M19.386,12.067H10.223l3.554-3.4a1.417,1.417,0,0,0,0-1.935,1.266,1.266,0,0,0-1.85,0L6.01,12.467a1.3,1.3,0,0,0-.385.959v.017a1.3,1.3,0,0,0,.385.959l5.913,5.74a1.266,1.266,0,0,0,1.85,0,1.417,1.417,0,0,0,0-1.935l-3.554-3.4h9.163a1.343,1.343,0,0,0,1.31-1.37,1.326,1.326,0,0,0-1.306-1.371Z" transform="translate(-0.693 -1.33)" fill="#fff"/>
</svg>
