<svg xmlns="http://www.w3.org/2000/svg" xmlns:xlink="http://www.w3.org/1999/xlink" width="205" height="48" viewBox="0 0 205 48">
  <defs>
    <linearGradient id="linear-gradient" x1="0.5" x2="0.5" y2="1" gradientUnits="objectBoundingBox">
      <stop offset="0" stop-color="#0098df"/>
      <stop offset="1" stop-color="#0c4ea4"/>
    </linearGradient>
    <linearGradient id="linear-gradient-2" x1="0.251" x2="0.5" y2="1" gradientUnits="objectBoundingBox">
      <stop offset="0" stop-color="#ff007a"/>
      <stop offset="1" stop-color="#72003f"/>
    </linearGradient>
    <linearGradient id="linear-gradient-3" x1="0.5" x2="0.5" y2="1" gradientUnits="objectBoundingBox">
      <stop offset="0" stop-color="#bc005e"/>
      <stop offset="1" stop-color="#ae0058"/>
    </linearGradient>
    <linearGradient id="linear-gradient-4" x1="0.5" x2="0.5" y2="1" gradientUnits="objectBoundingBox">
      <stop offset="0" stop-color="#066cbc"/>
      <stop offset="1" stop-color="#0865b6"/>
    </linearGradient>
    <clipPath id="clip-SDUKO_Web_Logo_Old_Change_Color_">
      <rect width="205" height="48"/>
    </clipPath>
  </defs>
  <g id="SDUKO_Web_Logo_Old_Change_Color_" data-name="SDUKO Web Logo Old Change Color " clip-path="url(#clip-SDUKO_Web_Logo_Old_Change_Color_)">
    <g id="Group_1" data-name="Group 1" transform="translate(3.286 3.072)">
      <path id="Path_13" data-name="Path 13" d="M8556.672,17403.352c-.654,1.744.257,1.5,1.2,1.977.066,1.111-.528.961-.1,2.34.319,1.021-.11.148.021,1.078.064.461.314.5.587.934l.043.434.026.26c2.2-3.705-.387-.391.053.045a2.828,2.828,0,0,0,.747.416c-.158-.158-.5-.062-.852-.1-.99,5.09,5.787,2.189,8.557,1.807-.348,1.506-2.206,3.707-3.011,4.611-3.512,3.939-8.6,5.447-13.608,3.064-.986-.469-1.658-1.057-2.432-1.41l-.163-.152-.173-.143-.16-.162-.168-.148-.154-.164-.158-.156-.157-.17-.146-.156-.116-.08.116.08.146.156.157.17.158.156.154.164.168.148.16.162.173.143.163.152c.784,1.221,4.988,4.363,7.354,4.584,5.739.533,12.641-3.861,16.757-7.086,1.737-1.361,8.5-9.137,8.873-9.656,5.213-12.021-4.269-24.893-18.621-20.008a11.153,11.153,0,0,0-4.509,2.67c-1.278,1.508-1.8,3.555,1.417,3.736-.294,1.408-2.267,3.988-1.494,5.316.572.98,1.2.938.364,2.529C8557.6,17401.76,8557.095,17402.467,8556.672,17403.352Z" transform="translate(-8528.285 -17385.578)" fill-rule="evenodd" fill="url(#linear-gradient)"/>
      <g id="Group_36" data-name="Group 36">
        <path id="Path_12" data-name="Path 12" d="M4564.022,17426.145c.207-.508-.338.256-.406.34-2.28,2.752-4.731,5.4-7.194,7.994a14.671,14.671,0,0,1-1.122,1.068l-.078.063c-4.221,3.277-11,7.559-16.537,7.1-2.507-.207-5.94-2.7-7.555-4.566a13.046,13.046,0,0,1-1.774-1.939c-1.761-2.8-3.849-5.953-5.318-8.877-.062-.123-.687-1.258-.4-1.326.387.01,3.752,3.145,4.251,3.564,1.732,1.463,6.387,5.318,6.807.674l.024-.258-.061-.578c-.071.258.043.178-.152.1a5.859,5.859,0,0,1-.228-2.559c.092-.984.409-1.406,1.33-1.574l.143.27.108.514c-.467-.031-.62.266-.511.814.6-.295.595-.6.4-1.328l-.143-.27c-.482-1.07,2.613-.535,1.36-2.83-.577-1.059-1.791-1.912-1.308-3.457,1.471-4.709-.414-4.371.508-6.035a1.906,1.906,0,0,0-.061-2.076,12.892,12.892,0,0,0-16.686-4.666c-9.166,4.619-9.227,13.031-5.989,21.641,2.789,7.246,14.154,17.725,21.439,20.229,4.323,1.434,7.186.26,10.957-1.885a47.729,47.729,0,0,0,10.58-8.471,41.35,41.35,0,0,0,7.521-11.475Z" transform="translate(-4511.489 -17404.885)" fill-rule="evenodd" fill="url(#linear-gradient-2)"/>
        <path id="Path_14" data-name="Path 14" d="M9387.752,21856.27c-.01-.2-.057-.625.13-.746s.51-.133.617-.285a.822.822,0,0,0,.047-.531c-.054-.422-.186-.371-.426-.641-.084-.1,0-.1.089-.129.072-.027.22-.07.262-.137s.058-.27.085-.363c.074-.246.186-.238.348-.379.069-.062.038-.105.021-.2a1.78,1.78,0,0,0-.122-.437c-.03-.059-.067-.121-.1-.184-1.745-.844-2.075.082-1.747,1.574-.084.91-1.059,2.355.644,2.559C9387.795,21856.449,9387.681,21856.527,9387.752,21856.27Z" transform="translate(-9364.582 -21831.748)" fill-rule="evenodd" fill="url(#linear-gradient-3)"/>
      </g>
      <path id="Path_15" data-name="Path 15" d="M11178.726,22399.088l-.023,1.971,1.329-.037.215-2.7-.843-.125Z" transform="translate(-11148.586 -22375.559)" fill-rule="evenodd" fill="url(#linear-gradient-4)"/>
    </g>
    <path id="Path_88" data-name="Path 88" d="M1.873.516v-6.45a12.394,12.394,0,0,0,3.81,2.207,12.246,12.246,0,0,0,4.152.736,9.208,9.208,0,0,0,2.147-.222,5.028,5.028,0,0,0,1.532-.615,2.681,2.681,0,0,0,.917-.927,2.313,2.313,0,0,0,.3-1.159,2.506,2.506,0,0,0-.484-1.512,5.206,5.206,0,0,0-1.32-1.23,13.8,13.8,0,0,0-1.985-1.088q-1.149-.524-2.479-1.068a12.654,12.654,0,0,1-5.049-3.447,7.525,7.525,0,0,1-1.663-4.918,7.833,7.833,0,0,1,.907-3.88,7.7,7.7,0,0,1,2.469-2.671,11.072,11.072,0,0,1,3.618-1.542,18.592,18.592,0,0,1,4.354-.494,26.188,26.188,0,0,1,4,.272,15.736,15.736,0,0,1,3.215.837v6.027a9.722,9.722,0,0,0-1.582-.887,12.537,12.537,0,0,0-1.764-.635,13.454,13.454,0,0,0-1.8-.373,12.768,12.768,0,0,0-1.7-.121,8.883,8.883,0,0,0-2.016.212,5.17,5.17,0,0,0-1.532.595,2.959,2.959,0,0,0-.968.917,2.174,2.174,0,0,0-.343,1.2,2.291,2.291,0,0,0,.383,1.3,4.393,4.393,0,0,0,1.088,1.088,11.551,11.551,0,0,0,1.713,1.008q1.008.494,2.278,1.018a25.381,25.381,0,0,1,3.114,1.542,11.071,11.071,0,0,1,2.368,1.844,7.185,7.185,0,0,1,1.512,2.348A8.3,8.3,0,0,1,21.587-6.5a8.234,8.234,0,0,1-.917,4.062A7.446,7.446,0,0,1,18.18.224a10.8,10.8,0,0,1-3.659,1.461,21.144,21.144,0,0,1-4.4.443,24.49,24.49,0,0,1-4.525-.4A13.661,13.661,0,0,1,1.873.516ZM26.344,1.624V-27.281h10.24q15.4,0,15.4,14.09,0,6.753-4.2,10.784t-11.2,4.031Zm6.511-23.6V-3.657H36.08A8.715,8.715,0,0,0,42.721-6.2,9.637,9.637,0,0,0,45.13-13.11a8.742,8.742,0,0,0-2.389-6.5,9.106,9.106,0,0,0-6.7-2.368Zm47.49,11.086q0,13.022-12.135,13.022-11.772,0-11.772-12.719v-16.69h6.531V-10.51q0,7.015,5.483,7.015,5.382,0,5.382-6.773V-27.281h6.511ZM110.661,1.624h-8.224L94.011-10.933a12.037,12.037,0,0,1-.766-1.592h-.1V1.624H86.634V-27.281h6.511v13.667h.1q.242-.564.806-1.613l7.982-12.054h7.761L99.716-13.493Zm13.787.5A13.455,13.455,0,0,1,114.33-1.913a14.509,14.509,0,0,1-3.91-10.532q0-6.853,3.971-11.086a13.748,13.748,0,0,1,10.522-4.233,13.12,13.12,0,0,1,10.008,4.052q3.82,4.052,3.82,10.683,0,6.813-3.961,10.986A13.594,13.594,0,0,1,124.449,2.128Zm.282-24.289a6.554,6.554,0,0,0-5.442,2.57,10.716,10.716,0,0,0-2.016,6.8,10.519,10.519,0,0,0,2.016,6.793,6.459,6.459,0,0,0,5.281,2.5,6.524,6.524,0,0,0,5.342-2.429,10.4,10.4,0,0,0,1.975-6.743,11.273,11.273,0,0,0-1.915-6.995A6.243,6.243,0,0,0,124.731-22.161Z" transform="translate(62.06 37.361)" fill="#d40068"/>
  </g>
</svg>
